<mxfile host="app.diagrams.net" modified="2024-02-07T12:13:58.396Z" agent="Mozilla/5.0 (Windows NT 10.0; Win64; x64) AppleWebKit/537.36 (KHTML, like Gecko) Chrome/120.0.0.0 Safari/537.36 OPR/106.0.0.0" etag="tRFtojO-vfW_1cliygY9" version="23.1.1" type="github">
  <diagram name="Page-1" id="0q6ZLQlmQKGyvXgaJvjf">
    <mxGraphModel dx="1009" dy="573" grid="1" gridSize="10" guides="1" tooltips="1" connect="1" arrows="1" fold="1" page="1" pageScale="1" pageWidth="850" pageHeight="1100" math="0" shadow="0">
      <root>
        <mxCell id="0" />
        <mxCell id="1" parent="0" />
        <mxCell id="ruanvUeXlCrN284Pny8K-1" value="" style="ellipse;whiteSpace=wrap;html=1;aspect=fixed;" parent="1" vertex="1">
          <mxGeometry x="400" y="40" width="80" height="80" as="geometry" />
        </mxCell>
        <mxCell id="ruanvUeXlCrN284Pny8K-2" value="" style="ellipse;whiteSpace=wrap;html=1;aspect=fixed;" parent="1" vertex="1">
          <mxGeometry x="407.5" y="47.5" width="65" height="65" as="geometry" />
        </mxCell>
        <mxCell id="ruanvUeXlCrN284Pny8K-3" value="" style="ellipse;whiteSpace=wrap;html=1;aspect=fixed;" parent="1" vertex="1">
          <mxGeometry x="200" y="40" width="80" height="80" as="geometry" />
        </mxCell>
        <mxCell id="ruanvUeXlCrN284Pny8K-4" value="" style="endArrow=classic;html=1;rounded=0;entryX=0;entryY=0.5;entryDx=0;entryDy=0;" parent="1" edge="1">
          <mxGeometry width="50" height="50" relative="1" as="geometry">
            <mxPoint x="120" y="80" as="sourcePoint" />
            <mxPoint x="200" y="80" as="targetPoint" />
          </mxGeometry>
        </mxCell>
        <mxCell id="ruanvUeXlCrN284Pny8K-5" value="" style="endArrow=classic;html=1;rounded=0;entryX=0;entryY=0.5;entryDx=0;entryDy=0;exitX=1;exitY=0.5;exitDx=0;exitDy=0;" parent="1" source="ruanvUeXlCrN284Pny8K-3" target="ruanvUeXlCrN284Pny8K-1" edge="1">
          <mxGeometry width="50" height="50" relative="1" as="geometry">
            <mxPoint x="290" y="110" as="sourcePoint" />
            <mxPoint x="410" y="110" as="targetPoint" />
          </mxGeometry>
        </mxCell>
        <mxCell id="ruanvUeXlCrN284Pny8K-6" value="&lt;b style=&quot;font-size: 15px;&quot;&gt;S0&lt;/b&gt;" style="text;html=1;strokeColor=none;fillColor=none;align=center;verticalAlign=middle;whiteSpace=wrap;rounded=0;fontSize=15;" parent="1" vertex="1">
          <mxGeometry x="210" y="65" width="60" height="30" as="geometry" />
        </mxCell>
        <mxCell id="ruanvUeXlCrN284Pny8K-7" value="&lt;b&gt;&lt;font style=&quot;font-size: 15px;&quot;&gt;S9&lt;/font&gt;&lt;/b&gt;" style="text;html=1;strokeColor=none;fillColor=none;align=center;verticalAlign=middle;whiteSpace=wrap;rounded=0;" parent="1" vertex="1">
          <mxGeometry x="410" y="65" width="60" height="30" as="geometry" />
        </mxCell>
        <mxCell id="ruanvUeXlCrN284Pny8K-8" value="&amp;lt;" style="text;html=1;strokeColor=none;fillColor=none;align=center;verticalAlign=middle;whiteSpace=wrap;rounded=0;fontSize=15;" parent="1" vertex="1">
          <mxGeometry x="286" y="47.5" width="105" height="30" as="geometry" />
        </mxCell>
        <mxCell id="ruanvUeXlCrN284Pny8K-9" value="" style="ellipse;whiteSpace=wrap;html=1;aspect=fixed;" parent="1" vertex="1">
          <mxGeometry x="600" y="40" width="80" height="80" as="geometry" />
        </mxCell>
        <mxCell id="ruanvUeXlCrN284Pny8K-10" value="" style="ellipse;whiteSpace=wrap;html=1;aspect=fixed;" parent="1" vertex="1">
          <mxGeometry x="607.5" y="47.5" width="65" height="65" as="geometry" />
        </mxCell>
        <mxCell id="ruanvUeXlCrN284Pny8K-11" value="" style="endArrow=classic;html=1;rounded=0;entryX=0;entryY=0.5;entryDx=0;entryDy=0;exitX=1;exitY=0.5;exitDx=0;exitDy=0;" parent="1" target="ruanvUeXlCrN284Pny8K-9" edge="1">
          <mxGeometry width="50" height="50" relative="1" as="geometry">
            <mxPoint x="480" y="80" as="sourcePoint" />
            <mxPoint x="610" y="110" as="targetPoint" />
          </mxGeometry>
        </mxCell>
        <mxCell id="ruanvUeXlCrN284Pny8K-12" value="&lt;b&gt;&lt;font style=&quot;font-size: 15px;&quot;&gt;S10&lt;/font&gt;&lt;/b&gt;" style="text;html=1;strokeColor=none;fillColor=none;align=center;verticalAlign=middle;whiteSpace=wrap;rounded=0;" parent="1" vertex="1">
          <mxGeometry x="610" y="65" width="60" height="30" as="geometry" />
        </mxCell>
        <mxCell id="ruanvUeXlCrN284Pny8K-13" value="=" style="text;html=1;strokeColor=none;fillColor=none;align=center;verticalAlign=middle;whiteSpace=wrap;rounded=0;fontSize=15;" parent="1" vertex="1">
          <mxGeometry x="490" y="47.5" width="105" height="30" as="geometry" />
        </mxCell>
        <mxCell id="ruanvUeXlCrN284Pny8K-14" value="" style="ellipse;whiteSpace=wrap;html=1;aspect=fixed;" parent="1" vertex="1">
          <mxGeometry x="400" y="160" width="80" height="80" as="geometry" />
        </mxCell>
        <mxCell id="ruanvUeXlCrN284Pny8K-15" value="" style="ellipse;whiteSpace=wrap;html=1;aspect=fixed;" parent="1" vertex="1">
          <mxGeometry x="407.5" y="167.5" width="65" height="65" as="geometry" />
        </mxCell>
        <mxCell id="ruanvUeXlCrN284Pny8K-16" value="" style="ellipse;whiteSpace=wrap;html=1;aspect=fixed;" parent="1" vertex="1">
          <mxGeometry x="200" y="160" width="80" height="80" as="geometry" />
        </mxCell>
        <mxCell id="ruanvUeXlCrN284Pny8K-17" value="" style="endArrow=classic;html=1;rounded=0;entryX=0;entryY=0.5;entryDx=0;entryDy=0;" parent="1" edge="1">
          <mxGeometry width="50" height="50" relative="1" as="geometry">
            <mxPoint x="120" y="200" as="sourcePoint" />
            <mxPoint x="200" y="200" as="targetPoint" />
          </mxGeometry>
        </mxCell>
        <mxCell id="ruanvUeXlCrN284Pny8K-18" value="" style="endArrow=classic;html=1;rounded=0;entryX=0;entryY=0.5;entryDx=0;entryDy=0;exitX=1;exitY=0.5;exitDx=0;exitDy=0;" parent="1" source="ruanvUeXlCrN284Pny8K-16" target="ruanvUeXlCrN284Pny8K-14" edge="1">
          <mxGeometry width="50" height="50" relative="1" as="geometry">
            <mxPoint x="290" y="230" as="sourcePoint" />
            <mxPoint x="410" y="230" as="targetPoint" />
          </mxGeometry>
        </mxCell>
        <mxCell id="ruanvUeXlCrN284Pny8K-19" value="&lt;b style=&quot;font-size: 15px;&quot;&gt;S0&lt;/b&gt;" style="text;html=1;strokeColor=none;fillColor=none;align=center;verticalAlign=middle;whiteSpace=wrap;rounded=0;fontSize=15;" parent="1" vertex="1">
          <mxGeometry x="210" y="185" width="60" height="30" as="geometry" />
        </mxCell>
        <mxCell id="ruanvUeXlCrN284Pny8K-20" value="&lt;b&gt;&lt;font style=&quot;font-size: 15px;&quot;&gt;S11&lt;/font&gt;&lt;/b&gt;" style="text;html=1;strokeColor=none;fillColor=none;align=center;verticalAlign=middle;whiteSpace=wrap;rounded=0;" parent="1" vertex="1">
          <mxGeometry x="410" y="185" width="60" height="30" as="geometry" />
        </mxCell>
        <mxCell id="ruanvUeXlCrN284Pny8K-21" value="&amp;gt;" style="text;html=1;strokeColor=none;fillColor=none;align=center;verticalAlign=middle;whiteSpace=wrap;rounded=0;fontSize=15;" parent="1" vertex="1">
          <mxGeometry x="286" y="167.5" width="105" height="30" as="geometry" />
        </mxCell>
        <mxCell id="ruanvUeXlCrN284Pny8K-22" value="" style="ellipse;whiteSpace=wrap;html=1;aspect=fixed;" parent="1" vertex="1">
          <mxGeometry x="600" y="160" width="80" height="80" as="geometry" />
        </mxCell>
        <mxCell id="ruanvUeXlCrN284Pny8K-23" value="" style="ellipse;whiteSpace=wrap;html=1;aspect=fixed;" parent="1" vertex="1">
          <mxGeometry x="607.5" y="167.5" width="65" height="65" as="geometry" />
        </mxCell>
        <mxCell id="ruanvUeXlCrN284Pny8K-24" value="" style="endArrow=classic;html=1;rounded=0;entryX=0;entryY=0.5;entryDx=0;entryDy=0;exitX=1;exitY=0.5;exitDx=0;exitDy=0;" parent="1" target="ruanvUeXlCrN284Pny8K-22" edge="1">
          <mxGeometry width="50" height="50" relative="1" as="geometry">
            <mxPoint x="480" y="200" as="sourcePoint" />
            <mxPoint x="610" y="230" as="targetPoint" />
          </mxGeometry>
        </mxCell>
        <mxCell id="ruanvUeXlCrN284Pny8K-25" value="&lt;b&gt;&lt;font style=&quot;font-size: 15px;&quot;&gt;S12&lt;/font&gt;&lt;/b&gt;" style="text;html=1;strokeColor=none;fillColor=none;align=center;verticalAlign=middle;whiteSpace=wrap;rounded=0;" parent="1" vertex="1">
          <mxGeometry x="610" y="185" width="60" height="30" as="geometry" />
        </mxCell>
        <mxCell id="ruanvUeXlCrN284Pny8K-26" value="=" style="text;html=1;strokeColor=none;fillColor=none;align=center;verticalAlign=middle;whiteSpace=wrap;rounded=0;fontSize=15;" parent="1" vertex="1">
          <mxGeometry x="490" y="167.5" width="105" height="30" as="geometry" />
        </mxCell>
        <mxCell id="ruanvUeXlCrN284Pny8K-27" value="" style="ellipse;whiteSpace=wrap;html=1;aspect=fixed;" parent="1" vertex="1">
          <mxGeometry x="400" y="280" width="80" height="80" as="geometry" />
        </mxCell>
        <mxCell id="ruanvUeXlCrN284Pny8K-28" value="" style="ellipse;whiteSpace=wrap;html=1;aspect=fixed;" parent="1" vertex="1">
          <mxGeometry x="407.5" y="287.5" width="65" height="65" as="geometry" />
        </mxCell>
        <mxCell id="ruanvUeXlCrN284Pny8K-29" value="" style="ellipse;whiteSpace=wrap;html=1;aspect=fixed;" parent="1" vertex="1">
          <mxGeometry x="200" y="280" width="80" height="80" as="geometry" />
        </mxCell>
        <mxCell id="ruanvUeXlCrN284Pny8K-30" value="" style="endArrow=classic;html=1;rounded=0;entryX=0;entryY=0.5;entryDx=0;entryDy=0;" parent="1" edge="1">
          <mxGeometry width="50" height="50" relative="1" as="geometry">
            <mxPoint x="120" y="320" as="sourcePoint" />
            <mxPoint x="200" y="320" as="targetPoint" />
          </mxGeometry>
        </mxCell>
        <mxCell id="ruanvUeXlCrN284Pny8K-31" value="" style="endArrow=classic;html=1;rounded=0;entryX=0;entryY=0.5;entryDx=0;entryDy=0;exitX=1;exitY=0.5;exitDx=0;exitDy=0;" parent="1" source="ruanvUeXlCrN284Pny8K-29" target="ruanvUeXlCrN284Pny8K-27" edge="1">
          <mxGeometry width="50" height="50" relative="1" as="geometry">
            <mxPoint x="290" y="350" as="sourcePoint" />
            <mxPoint x="410" y="350" as="targetPoint" />
          </mxGeometry>
        </mxCell>
        <mxCell id="ruanvUeXlCrN284Pny8K-32" value="&lt;b style=&quot;font-size: 15px;&quot;&gt;S0&lt;/b&gt;" style="text;html=1;strokeColor=none;fillColor=none;align=center;verticalAlign=middle;whiteSpace=wrap;rounded=0;fontSize=15;" parent="1" vertex="1">
          <mxGeometry x="210" y="305" width="60" height="30" as="geometry" />
        </mxCell>
        <mxCell id="ruanvUeXlCrN284Pny8K-33" value="&lt;b&gt;&lt;font style=&quot;font-size: 15px;&quot;&gt;S13&lt;/font&gt;&lt;/b&gt;" style="text;html=1;strokeColor=none;fillColor=none;align=center;verticalAlign=middle;whiteSpace=wrap;rounded=0;" parent="1" vertex="1">
          <mxGeometry x="410" y="305" width="60" height="30" as="geometry" />
        </mxCell>
        <mxCell id="ruanvUeXlCrN284Pny8K-34" value="!" style="text;html=1;strokeColor=none;fillColor=none;align=center;verticalAlign=middle;whiteSpace=wrap;rounded=0;fontSize=15;" parent="1" vertex="1">
          <mxGeometry x="286" y="287.5" width="105" height="30" as="geometry" />
        </mxCell>
        <mxCell id="ruanvUeXlCrN284Pny8K-35" value="" style="ellipse;whiteSpace=wrap;html=1;aspect=fixed;" parent="1" vertex="1">
          <mxGeometry x="600" y="280" width="80" height="80" as="geometry" />
        </mxCell>
        <mxCell id="ruanvUeXlCrN284Pny8K-36" value="" style="ellipse;whiteSpace=wrap;html=1;aspect=fixed;" parent="1" vertex="1">
          <mxGeometry x="607.5" y="287.5" width="65" height="65" as="geometry" />
        </mxCell>
        <mxCell id="ruanvUeXlCrN284Pny8K-37" value="" style="endArrow=classic;html=1;rounded=0;entryX=0;entryY=0.5;entryDx=0;entryDy=0;exitX=1;exitY=0.5;exitDx=0;exitDy=0;" parent="1" target="ruanvUeXlCrN284Pny8K-35" edge="1">
          <mxGeometry width="50" height="50" relative="1" as="geometry">
            <mxPoint x="480" y="320" as="sourcePoint" />
            <mxPoint x="610" y="350" as="targetPoint" />
          </mxGeometry>
        </mxCell>
        <mxCell id="ruanvUeXlCrN284Pny8K-38" value="&lt;b&gt;&lt;font style=&quot;font-size: 15px;&quot;&gt;S14&lt;/font&gt;&lt;/b&gt;" style="text;html=1;strokeColor=none;fillColor=none;align=center;verticalAlign=middle;whiteSpace=wrap;rounded=0;" parent="1" vertex="1">
          <mxGeometry x="610" y="305" width="60" height="30" as="geometry" />
        </mxCell>
        <mxCell id="ruanvUeXlCrN284Pny8K-39" value="=" style="text;html=1;strokeColor=none;fillColor=none;align=center;verticalAlign=middle;whiteSpace=wrap;rounded=0;fontSize=15;" parent="1" vertex="1">
          <mxGeometry x="490" y="287.5" width="105" height="30" as="geometry" />
        </mxCell>
        <mxCell id="ruanvUeXlCrN284Pny8K-40" value="" style="ellipse;whiteSpace=wrap;html=1;aspect=fixed;" parent="1" vertex="1">
          <mxGeometry x="400" y="400" width="80" height="80" as="geometry" />
        </mxCell>
        <mxCell id="ruanvUeXlCrN284Pny8K-41" value="" style="ellipse;whiteSpace=wrap;html=1;aspect=fixed;" parent="1" vertex="1">
          <mxGeometry x="407.5" y="407.5" width="65" height="65" as="geometry" />
        </mxCell>
        <mxCell id="ruanvUeXlCrN284Pny8K-42" value="" style="ellipse;whiteSpace=wrap;html=1;aspect=fixed;" parent="1" vertex="1">
          <mxGeometry x="200" y="400" width="80" height="80" as="geometry" />
        </mxCell>
        <mxCell id="ruanvUeXlCrN284Pny8K-43" value="" style="endArrow=classic;html=1;rounded=0;entryX=0;entryY=0.5;entryDx=0;entryDy=0;" parent="1" edge="1">
          <mxGeometry width="50" height="50" relative="1" as="geometry">
            <mxPoint x="120" y="440" as="sourcePoint" />
            <mxPoint x="200" y="440" as="targetPoint" />
          </mxGeometry>
        </mxCell>
        <mxCell id="ruanvUeXlCrN284Pny8K-44" value="" style="endArrow=classic;html=1;rounded=0;entryX=0;entryY=0.5;entryDx=0;entryDy=0;exitX=1;exitY=0.5;exitDx=0;exitDy=0;" parent="1" source="ruanvUeXlCrN284Pny8K-42" target="ruanvUeXlCrN284Pny8K-40" edge="1">
          <mxGeometry width="50" height="50" relative="1" as="geometry">
            <mxPoint x="290" y="470" as="sourcePoint" />
            <mxPoint x="410" y="470" as="targetPoint" />
          </mxGeometry>
        </mxCell>
        <mxCell id="ruanvUeXlCrN284Pny8K-45" value="&lt;b style=&quot;font-size: 15px;&quot;&gt;S0&lt;/b&gt;" style="text;html=1;strokeColor=none;fillColor=none;align=center;verticalAlign=middle;whiteSpace=wrap;rounded=0;fontSize=15;" parent="1" vertex="1">
          <mxGeometry x="210" y="425" width="60" height="30" as="geometry" />
        </mxCell>
        <mxCell id="ruanvUeXlCrN284Pny8K-46" value="&lt;b&gt;&lt;font style=&quot;font-size: 15px;&quot;&gt;S15&lt;/font&gt;&lt;/b&gt;" style="text;html=1;strokeColor=none;fillColor=none;align=center;verticalAlign=middle;whiteSpace=wrap;rounded=0;" parent="1" vertex="1">
          <mxGeometry x="410" y="425" width="60" height="30" as="geometry" />
        </mxCell>
        <mxCell id="ruanvUeXlCrN284Pny8K-47" value="=" style="text;html=1;strokeColor=none;fillColor=none;align=center;verticalAlign=middle;whiteSpace=wrap;rounded=0;fontSize=15;" parent="1" vertex="1">
          <mxGeometry x="286" y="407.5" width="105" height="30" as="geometry" />
        </mxCell>
        <mxCell id="ruanvUeXlCrN284Pny8K-48" value="" style="ellipse;whiteSpace=wrap;html=1;aspect=fixed;" parent="1" vertex="1">
          <mxGeometry x="600" y="400" width="80" height="80" as="geometry" />
        </mxCell>
        <mxCell id="ruanvUeXlCrN284Pny8K-49" value="" style="ellipse;whiteSpace=wrap;html=1;aspect=fixed;" parent="1" vertex="1">
          <mxGeometry x="607.5" y="407.5" width="65" height="65" as="geometry" />
        </mxCell>
        <mxCell id="ruanvUeXlCrN284Pny8K-50" value="" style="endArrow=classic;html=1;rounded=0;entryX=0;entryY=0.5;entryDx=0;entryDy=0;exitX=1;exitY=0.5;exitDx=0;exitDy=0;" parent="1" target="ruanvUeXlCrN284Pny8K-48" edge="1">
          <mxGeometry width="50" height="50" relative="1" as="geometry">
            <mxPoint x="480" y="440" as="sourcePoint" />
            <mxPoint x="610" y="470" as="targetPoint" />
          </mxGeometry>
        </mxCell>
        <mxCell id="ruanvUeXlCrN284Pny8K-51" value="&lt;b&gt;&lt;font style=&quot;font-size: 15px;&quot;&gt;S16&lt;/font&gt;&lt;/b&gt;" style="text;html=1;strokeColor=none;fillColor=none;align=center;verticalAlign=middle;whiteSpace=wrap;rounded=0;" parent="1" vertex="1">
          <mxGeometry x="610" y="425" width="60" height="30" as="geometry" />
        </mxCell>
        <mxCell id="ruanvUeXlCrN284Pny8K-52" value="=" style="text;html=1;strokeColor=none;fillColor=none;align=center;verticalAlign=middle;whiteSpace=wrap;rounded=0;fontSize=15;" parent="1" vertex="1">
          <mxGeometry x="490" y="407.5" width="105" height="30" as="geometry" />
        </mxCell>
      </root>
    </mxGraphModel>
  </diagram>
</mxfile>
